<svg width="1169" height="333" viewBox="0 0 1169 333" fill="none" xmlns="http://www.w3.org/2000/svg">
<path fill-rule="evenodd" clip-rule="evenodd" d="M302.068 116.414C306.589 115.785 310.938 115.469 315.118 115.469C319.525 115.469 323.876 115.785 328.17 116.414L356.135 174.457L384.947 116.414C388.451 115.785 392.346 115.469 396.641 115.469C400.935 115.469 405.058 115.785 409.013 116.414L414.775 222.997C410.483 223.628 406.414 223.941 402.573 223.941C398.729 223.941 394.946 223.627 391.218 222.997L388.167 145.936L363.422 199.198C361.839 199.408 360.202 199.593 358.506 199.749C356.811 199.907 355.118 199.984 353.423 199.984C351.953 199.984 350.486 199.932 349.017 199.828C347.549 199.723 346.023 199.512 344.44 199.198L321.391 144.833L319.019 222.998C315.404 223.629 311.901 223.942 308.51 223.942C304.894 223.942 301.164 223.628 297.325 222.998L302.068 116.414ZM1039.57 158.076H1029.4L1028.62 154.947L1057.87 117.556H1061.47V141.18H1080.4C1080.72 142.745 1080.92 144.153 1081.03 145.404C1081.13 146.657 1081.19 147.959 1081.19 149.316C1081.19 150.776 1081.13 152.183 1081.03 153.54C1080.92 154.897 1080.72 156.409 1080.4 158.077H1061.47V189.837C1061.47 193.069 1061.74 195.676 1062.26 197.659C1062.78 199.639 1063.53 201.204 1064.52 202.353C1065.52 203.5 1066.74 204.282 1068.2 204.699C1069.66 205.117 1071.38 205.326 1073.36 205.326C1074.93 205.326 1076.46 205.194 1077.98 204.934C1079.49 204.673 1080.82 204.439 1081.97 204.23C1082.7 206.21 1083.22 208.271 1083.53 210.409C1083.85 212.548 1084 214.452 1084 216.12C1084 217.267 1083.98 218.231 1083.92 219.014C1083.87 219.795 1083.79 220.553 1083.69 221.282C1078.89 222.43 1073.94 223.002 1068.83 223.002C1059.34 223.002 1052.09 220.786 1047.08 216.356C1042.07 211.922 1039.57 204.699 1039.57 194.686V158.076H1039.57ZM985.457 186.863C979.615 185.193 975.052 182.716 971.768 179.431C968.482 176.147 966.839 171.217 966.839 164.645C966.839 156.718 969.681 150.515 975.366 146.03C981.05 141.544 988.795 139.302 998.598 139.302C1002.67 139.302 1006.68 139.667 1010.64 140.398C1014.61 141.128 1018.62 142.222 1022.69 143.683C1022.48 146.394 1021.96 149.21 1021.12 152.131C1020.29 155.05 1019.3 157.606 1018.15 159.798C1015.65 158.754 1012.89 157.841 1009.86 157.058C1006.84 156.277 1003.66 155.886 1000.32 155.886C996.771 155.886 994.008 156.433 992.025 157.529C990.044 158.625 989.054 160.372 989.054 162.769C989.054 165.064 989.758 166.681 991.166 167.62C992.574 168.558 994.583 169.447 997.189 170.279L1006.11 172.94C1009.03 173.773 1011.66 174.789 1014.01 175.99C1016.35 177.19 1018.36 178.676 1020.03 180.448C1021.7 182.22 1023 184.412 1023.94 187.019C1024.88 189.627 1025.35 192.807 1025.35 196.561C1025.35 200.422 1024.54 204.02 1022.93 207.357C1021.31 210.696 1018.96 213.59 1015.89 216.04C1012.81 218.493 1009.08 220.422 1004.7 221.829C1000.32 223.237 995.364 223.941 989.836 223.941C987.332 223.941 985.039 223.863 982.954 223.707C980.868 223.549 978.86 223.289 976.93 222.925C975.001 222.559 973.097 222.117 971.219 221.595C969.342 221.074 967.307 220.396 965.117 219.56C965.327 216.743 965.822 213.901 966.603 211.034C967.385 208.167 968.403 205.375 969.654 202.663C973.096 204.02 976.356 205.036 979.433 205.714C982.51 206.393 985.717 206.733 989.053 206.733C990.514 206.733 992.104 206.601 993.824 206.34C995.545 206.079 997.136 205.61 998.596 204.932C1000.06 204.254 1001.28 203.367 1002.27 202.273C1003.26 201.178 1003.76 199.744 1003.76 197.969C1003.76 195.468 1003 193.669 1001.49 192.573C999.977 191.479 997.865 190.512 995.155 189.679L985.457 186.863ZM917.98 223.941C911.409 223.941 905.698 222.871 900.849 220.733C895.999 218.596 891.983 215.623 888.801 211.815C885.62 208.009 883.222 203.55 881.606 198.439C879.989 193.328 879.18 187.802 879.18 181.856C879.18 175.911 879.988 170.33 881.606 165.116C883.222 159.902 885.62 155.39 888.801 151.584C891.983 147.776 895.999 144.78 900.849 142.587C905.698 140.397 911.409 139.302 917.98 139.302C924.55 139.302 930.286 140.398 935.188 142.587C940.089 144.78 944.157 147.775 947.392 151.584C950.625 155.39 953.023 159.902 954.589 165.116C956.153 170.33 956.935 175.911 956.935 181.856C956.935 187.801 956.153 193.328 954.589 198.439C953.024 203.55 950.625 208.008 947.392 211.815C944.156 215.623 940.089 218.596 935.188 220.733C930.286 222.871 924.551 223.941 917.98 223.941ZM917.98 207.044C923.821 207.044 928.019 204.881 930.573 200.551C933.129 196.223 934.407 189.991 934.407 181.856C934.407 173.72 933.129 167.489 930.573 163.161C928.019 158.831 923.821 156.668 917.98 156.668C912.243 156.668 908.098 158.832 905.543 163.161C902.986 167.489 901.708 173.721 901.708 181.856C901.708 189.991 902.987 196.223 905.543 200.551C908.098 204.881 912.244 207.044 917.98 207.044ZM755.4 141.179C756.859 140.868 758.319 140.632 759.779 140.476C761.24 140.318 762.856 140.24 764.63 140.24C766.402 140.24 767.967 140.318 769.322 140.476C770.678 140.632 772.086 140.868 773.546 141.179C773.859 141.7 774.147 142.458 774.407 143.449C774.667 144.439 774.903 145.483 775.111 146.577C775.32 147.673 775.501 148.741 775.657 149.784C775.816 150.827 775.945 151.714 776.049 152.443C776.882 150.881 777.979 149.315 779.336 147.75C780.69 146.187 782.307 144.78 784.184 143.527C786.061 142.275 788.173 141.257 790.521 140.476C792.867 139.693 795.502 139.302 798.422 139.302C811.042 139.302 819.124 144.101 822.671 153.696C824.756 149.836 827.703 146.474 831.509 143.604C835.316 140.736 840.14 139.302 845.982 139.302C855.16 139.302 861.912 141.833 866.24 146.892C870.57 151.949 872.734 159.85 872.734 170.594V222.065C868.98 222.691 865.275 223.002 861.627 223.002C857.976 223.002 854.273 222.691 850.519 222.065V176.381C850.519 170.749 849.814 166.422 848.405 163.398C846.998 160.373 844.157 158.86 839.88 158.86C838.105 158.86 836.36 159.121 834.64 159.641C832.917 160.162 831.353 161.126 829.946 162.535C828.538 163.943 827.391 165.926 826.503 168.482C825.616 171.035 825.172 174.348 825.172 178.415V222.065C821.418 222.691 817.714 223.002 814.065 223.002C810.415 223.002 806.711 222.691 802.956 222.065V176.381C802.956 170.749 802.253 166.422 800.844 163.398C799.436 160.373 796.595 158.86 792.318 158.86C790.547 158.86 788.772 159.121 786.999 159.641C785.227 160.162 783.636 161.179 782.227 162.692C780.819 164.203 779.697 166.315 778.865 169.029C778.029 171.74 777.612 175.287 777.612 179.666V222.065C773.857 222.691 770.156 223.002 766.505 223.002C762.854 223.002 759.153 222.691 755.398 222.065V141.179H755.4ZM696.174 141.179C697.738 140.868 699.224 140.632 700.632 140.476C702.042 140.318 703.578 140.24 705.248 140.24C706.813 140.24 708.352 140.346 709.863 140.553C711.376 140.762 712.863 141.023 714.321 141.337C714.635 141.859 714.923 142.614 715.182 143.605C715.443 144.596 715.678 145.639 715.887 146.735C716.096 147.831 716.277 148.923 716.434 150.02C716.591 151.116 716.72 152.025 716.826 152.759C719.12 149.525 721.938 146.63 725.273 144.076C728.611 141.52 732.784 140.241 737.789 140.241C738.833 140.241 740.033 140.293 741.387 140.399C742.743 140.503 743.733 140.659 744.36 140.869C744.569 141.91 744.725 143.11 744.829 144.466C744.936 145.822 744.987 147.23 744.987 148.691C744.987 150.464 744.907 152.393 744.752 154.479C744.594 156.565 744.307 158.546 743.89 160.424C742.743 160.214 741.466 160.111 740.059 160.111C738.651 160.111 737.789 160.111 737.478 160.111C735.704 160.111 733.723 160.294 731.531 160.658C729.342 161.024 727.256 161.988 725.274 163.554C723.291 165.118 721.65 167.465 720.346 170.594C719.043 173.721 718.389 178.102 718.389 183.736V222.222C716.513 222.533 714.636 222.742 712.758 222.846C710.882 222.951 709.057 223.002 707.284 223.002C705.509 223.002 703.711 222.951 701.886 222.846C700.061 222.742 698.158 222.533 696.177 222.222V141.179H696.174ZM634.965 188.427C635.383 194.685 637.573 199.222 641.537 202.038C645.5 204.855 650.715 206.262 657.183 206.262C660.728 206.262 664.351 205.921 668.055 205.243C671.758 204.566 675.278 203.601 678.616 202.351C679.763 204.437 680.754 206.939 681.589 209.86C682.423 212.779 682.891 215.91 682.997 219.246C674.861 222.375 665.682 223.94 655.46 223.94C647.952 223.94 641.513 222.897 636.139 220.81C630.769 218.725 626.388 215.829 622.999 212.128C619.609 208.426 617.105 204.019 615.489 198.907C613.872 193.797 613.066 188.218 613.066 182.17C613.066 176.224 613.899 170.644 615.568 165.429C617.235 160.212 619.713 155.677 623 151.819C626.285 147.958 630.352 144.908 635.203 142.666C640.052 140.424 645.711 139.302 652.177 139.302C657.809 139.302 662.816 140.292 667.195 142.275C671.576 144.256 675.304 146.969 678.381 150.412C681.458 153.851 683.78 157.947 685.345 162.692C686.909 167.437 687.691 172.524 687.691 177.945C687.691 179.927 687.613 181.884 687.456 183.813C687.3 185.741 687.115 187.281 686.909 188.428H634.965V188.427ZM666.725 172.94C666.517 167.931 665.134 163.891 662.579 160.814C660.024 157.737 656.452 156.197 651.863 156.197C646.648 156.197 642.685 157.658 639.973 160.578C637.262 163.499 635.646 167.619 635.125 172.94H666.725ZM563.958 158.076H553.79L553.006 154.947L582.262 117.556H585.86V141.18H604.791C605.102 142.745 605.312 144.153 605.417 145.404C605.519 146.657 605.572 147.959 605.572 149.316C605.572 150.776 605.519 152.183 605.417 153.54C605.312 154.897 605.102 156.409 604.791 158.077H585.86V189.837C585.86 193.069 586.123 195.676 586.643 197.659C587.165 199.639 587.921 201.204 588.911 202.353C589.903 203.5 591.127 204.282 592.588 204.699C594.048 205.117 595.771 205.326 597.751 205.326C599.316 205.326 600.853 205.194 602.367 204.934C603.879 204.673 605.209 204.439 606.356 204.23C607.087 206.21 607.607 208.271 607.92 210.409C608.235 212.548 608.39 214.452 608.39 216.12C608.39 217.267 608.364 218.231 608.312 219.014C608.261 219.795 608.182 220.553 608.078 221.282C603.28 222.43 598.328 223.002 593.215 223.002C583.725 223.002 576.475 220.786 571.469 216.356C566.463 211.922 563.959 204.699 563.959 194.686V158.076H563.958ZM505.262 158.076H495.092L494.308 154.947L523.565 117.556H527.163V141.18H546.093C546.404 142.745 546.614 144.153 546.72 145.404C546.822 146.657 546.875 147.959 546.875 149.316C546.875 150.776 546.823 152.183 546.72 153.54C546.614 154.897 546.404 156.409 546.093 158.077H527.163V189.837C527.163 193.069 527.425 195.676 527.947 197.659C528.466 199.639 529.224 201.204 530.214 202.353C531.206 203.5 532.431 204.282 533.891 204.699C535.351 205.117 537.074 205.326 539.053 205.326C540.618 205.326 542.155 205.194 543.669 204.934C545.181 204.673 546.511 204.439 547.658 204.23C548.39 206.21 548.909 208.271 549.223 210.409C549.536 212.548 549.692 214.452 549.692 216.12C549.692 217.267 549.666 218.231 549.614 219.014C549.563 219.795 549.485 220.553 549.38 221.282C544.582 222.43 539.63 223.002 534.518 223.002C525.026 223.002 517.776 220.786 512.771 216.356C507.764 211.922 505.262 204.699 505.262 194.686V158.076V158.076ZM468.862 184.986C467.609 184.777 466.255 184.593 464.792 184.438C463.332 184.282 462.031 184.204 460.882 184.204C455.771 184.204 451.729 185.115 448.756 186.942C445.783 188.767 444.298 191.714 444.298 195.781C444.298 198.494 444.872 200.578 446.019 202.039C447.166 203.499 448.549 204.567 450.164 205.244C451.781 205.923 453.501 206.34 455.326 206.497C457.153 206.652 458.743 206.733 460.097 206.733C461.663 206.733 463.228 206.601 464.791 206.34C466.357 206.079 467.712 205.846 468.861 205.636V184.986H468.862ZM468.862 168.871C468.862 166.37 468.445 164.335 467.609 162.769C466.776 161.207 465.628 159.979 464.168 159.095C462.708 158.207 460.908 157.606 458.771 157.295C456.633 156.982 454.259 156.826 451.652 156.826C446.02 156.826 440.023 157.921 433.661 160.111C432.2 157.399 431.106 154.843 430.376 152.445C429.646 150.047 429.28 147.179 429.28 143.84C433.87 142.276 438.458 141.129 443.047 140.399C447.635 139.669 451.914 139.303 455.875 139.303C466.723 139.303 475.197 141.91 481.299 147.126C487.4 152.341 490.451 160.683 490.451 172.157V219.091C486.8 220.238 482.367 221.333 477.152 222.376C471.938 223.42 466.045 223.941 459.474 223.941C454.155 223.941 449.278 223.472 444.845 222.533C440.413 221.595 436.605 220.029 433.427 217.839C430.244 215.651 427.794 212.834 426.072 209.392C424.352 205.949 423.492 201.726 423.492 196.719C423.492 191.714 424.561 187.516 426.699 184.126C428.836 180.737 431.602 178.024 434.989 175.991C438.38 173.956 442.16 172.497 446.334 171.61C450.506 170.723 454.676 170.28 458.848 170.28C461.874 170.28 465.21 170.437 468.862 170.749V168.871Z" fill="#222222"/>
<path fill-rule="evenodd" clip-rule="evenodd" d="M214.41 99.6778L215.275 117.113C229.41 132.728 234.988 154.842 227.953 175.626C217.45 206.651 182.818 222.961 150.599 212.054C118.38 201.147 100.776 167.154 111.279 136.129C118.338 115.275 136.298 101.071 157.099 97.3088L168.337 84.0298C133.274 83.0808 100.194 104.845 88.3582 139.808C73.8162 182.766 96.8512 229.38 139.809 243.922C182.767 258.464 229.381 235.429 243.923 192.471C255.74 157.564 242.745 120.244 214.41 99.6778Z" fill="#222222"/>
<path fill-rule="evenodd" clip-rule="evenodd" d="M194.273 151.123L193.678 126.75L193.201 112.725L192.878 100.575C192.878 100.575 192.945 94.7158 192.741 93.3388C192.698 93.0488 192.607 92.8128 192.498 92.6078C192.485 92.5788 192.472 92.5498 192.457 92.5218C192.442 92.4958 192.426 92.4708 192.41 92.4468C192.185 92.0598 191.832 91.7458 191.375 91.5908C190.907 91.4328 190.424 91.4718 190.004 91.6528C189.995 91.6558 189.987 91.6588 189.978 91.6628C189.928 91.6848 189.88 91.7108 189.832 91.7368C189.633 91.8338 189.43 91.9588 189.232 92.1518C188.233 93.1208 184.728 97.8168 184.728 97.8168L177.091 107.272L168.193 118.123L152.915 137.123C152.915 137.123 145.904 145.873 147.453 156.643C149.002 167.413 157.009 172.66 163.221 174.763C169.433 176.866 178.981 177.562 186.754 169.947C194.528 162.332 194.273 151.123 194.273 151.123Z" fill="#222222"/>
</svg>
