<svg width="948" height="599" viewBox="0 0 948 599" fill="none" xmlns="http://www.w3.org/2000/svg">
<rect width="948" height="598.208" fill="#0058CC"/>
<path fill-rule="evenodd" clip-rule="evenodd" d="M88.7034 407.592C93.1861 406.969 97.4987 406.656 101.643 406.656C106.013 406.656 110.327 406.969 114.584 407.592L142.311 465.142L170.879 407.592C174.353 406.969 178.215 406.656 182.474 406.656C186.731 406.656 190.819 406.969 194.741 407.592L200.454 513.271C196.198 513.896 192.164 514.207 188.356 514.207C184.544 514.207 180.794 513.895 177.098 513.271L174.072 436.863L149.536 489.673C147.967 489.881 146.344 490.066 144.662 490.22C142.982 490.376 141.303 490.453 139.622 490.453C138.164 490.453 136.709 490.402 135.253 490.298C133.797 490.194 132.284 489.985 130.715 489.673L107.862 435.769L105.509 513.271C101.925 513.896 98.4511 514.207 95.09 514.207C91.5044 514.207 87.8064 513.895 84 513.271L88.7034 407.592ZM819.945 448.901H809.865L809.087 445.798L838.094 408.724H841.662V432.148H860.432C860.743 433.7 860.949 435.095 861.054 436.335C861.156 437.578 861.208 438.869 861.208 440.214C861.208 441.661 861.156 443.057 861.054 444.402C860.949 445.747 860.743 447.247 860.432 448.901H841.662V480.391C841.662 483.596 841.923 486.181 842.438 488.147C842.956 490.109 843.706 491.662 844.687 492.8C845.671 493.938 846.885 494.712 848.333 495.126C849.78 495.541 851.489 495.748 853.451 495.748C855.003 495.748 856.527 495.618 858.029 495.36C859.527 495.101 860.846 494.869 861.983 494.662C862.707 496.625 863.224 498.668 863.533 500.788C863.845 502.909 864 504.797 864 506.451C864 507.588 863.974 508.545 863.922 509.321C863.871 510.095 863.794 510.847 863.689 511.57C858.934 512.708 854.022 513.275 848.954 513.275C839.543 513.275 832.355 511.078 827.391 506.684C822.428 502.288 819.945 495.126 819.945 485.199V448.901V448.901ZM766.294 477.444C760.502 475.789 755.977 473.332 752.721 470.075C749.463 466.819 747.834 461.931 747.834 455.415C747.834 447.556 750.652 441.405 756.288 436.958C761.923 432.51 769.603 430.286 779.323 430.286C783.357 430.286 787.337 430.648 791.267 431.373C795.197 432.097 799.179 433.182 803.211 434.63C803.004 437.318 802.487 440.11 801.658 443.007C800.833 445.901 799.851 448.435 798.714 450.609C796.231 449.574 793.491 448.669 790.491 447.893C787.494 447.119 784.339 446.73 781.03 446.73C777.513 446.73 774.774 447.272 772.808 448.359C770.844 449.446 769.861 451.177 769.861 453.554C769.861 455.83 770.56 457.433 771.955 458.364C773.351 459.295 775.343 460.175 777.927 461.001L786.769 463.64C789.666 464.466 792.276 465.474 794.602 466.664C796.928 467.854 798.92 469.327 800.575 471.084C802.229 472.842 803.521 475.015 804.451 477.6C805.383 480.185 805.849 483.339 805.849 487.06C805.849 490.889 805.047 494.456 803.444 497.765C801.842 501.075 799.514 503.945 796.464 506.374C793.414 508.806 789.716 510.719 785.373 512.114C781.031 513.51 776.118 514.208 770.637 514.208C768.154 514.208 765.881 514.13 763.813 513.976C761.744 513.819 759.753 513.561 757.84 513.2C755.928 512.838 754.04 512.399 752.178 511.882C750.317 511.364 748.3 510.693 746.128 509.864C746.337 507.071 746.827 504.253 747.602 501.411C748.377 498.568 749.387 495.8 750.627 493.111C754.04 494.456 757.272 495.463 760.323 496.136C763.373 496.81 766.554 497.147 769.861 497.147C771.31 497.147 772.887 497.016 774.592 496.757C776.299 496.499 777.877 496.033 779.324 495.362C780.773 494.69 781.988 493.81 782.97 492.725C783.953 491.639 784.441 490.218 784.441 488.458C784.441 485.978 783.693 484.194 782.193 483.108C780.693 482.023 778.599 481.064 775.912 480.238L766.294 477.444ZM699.389 514.207C692.874 514.207 687.211 513.146 682.403 511.026C677.594 508.907 673.613 505.959 670.457 502.183C667.304 498.409 664.926 493.988 663.324 488.921C661.72 483.853 660.919 478.373 660.919 472.479C660.919 466.585 661.721 461.05 663.324 455.881C664.926 450.712 667.304 446.238 670.457 442.464C673.612 438.688 677.594 435.718 682.403 433.544C687.211 431.373 692.874 430.286 699.389 430.286C705.904 430.286 711.591 431.373 716.452 433.544C721.311 435.718 725.345 438.688 728.553 442.464C731.758 446.238 734.136 450.711 735.688 455.881C737.239 461.051 738.014 466.585 738.014 472.479C738.014 478.374 737.239 483.853 735.688 488.921C734.136 493.988 731.758 498.409 728.553 502.183C725.345 505.959 721.311 508.907 716.452 511.026C711.591 513.146 705.904 514.207 699.389 514.207ZM699.389 497.454C705.18 497.454 709.343 495.31 711.875 491.017C714.409 486.726 715.676 480.546 715.676 472.48C715.676 464.413 714.409 458.235 711.875 453.943C709.343 449.65 705.18 447.505 699.389 447.505C693.701 447.505 689.591 449.65 687.057 453.943C684.522 458.235 683.254 464.413 683.254 472.48C683.254 480.546 684.522 486.725 687.057 491.017C689.591 495.309 693.701 497.454 699.389 497.454ZM538.189 432.148C539.635 431.839 541.083 431.605 542.53 431.45C543.979 431.293 545.581 431.216 547.341 431.216C549.098 431.216 550.649 431.293 551.993 431.45C553.338 431.605 554.733 431.839 556.181 432.148C556.491 432.665 556.777 433.416 557.035 434.398C557.293 435.38 557.527 436.415 557.733 437.499C557.94 438.586 558.119 439.645 558.275 440.679C558.432 441.713 558.56 442.592 558.663 443.316C559.489 441.766 560.576 440.214 561.922 438.662C563.265 437.112 564.867 435.718 566.728 434.475C568.589 433.233 570.683 432.225 573.011 431.45C575.337 430.674 577.95 430.286 580.845 430.286C593.358 430.286 601.371 435.044 604.888 444.559C606.956 440.732 609.878 437.398 613.652 434.552C617.426 431.708 622.21 430.286 628.002 430.286C637.102 430.286 643.797 432.796 648.088 437.812C652.381 442.826 654.527 450.66 654.527 461.313V512.346C650.805 512.967 647.132 513.276 643.514 513.276C639.893 513.276 636.222 512.967 632.5 512.346V467.05C632.5 461.466 631.801 457.175 630.404 454.177C629.01 451.177 626.192 449.678 621.952 449.678C620.192 449.678 618.462 449.937 616.757 450.453C615.048 450.969 613.498 451.925 612.102 453.322C610.706 454.718 609.569 456.685 608.688 459.218C607.809 461.749 607.369 465.035 607.369 469.067V512.346C603.647 512.967 599.974 513.276 596.356 513.276C592.737 513.276 589.064 512.967 585.341 512.346V467.05C585.341 461.466 584.643 457.175 583.247 454.177C581.851 451.177 579.034 449.678 574.794 449.678C573.038 449.678 571.278 449.937 569.519 450.453C567.763 450.969 566.185 451.977 564.788 453.478C563.392 454.977 562.279 457.071 561.454 459.761C560.626 462.449 560.211 465.965 560.211 470.308V512.347C556.488 512.968 552.819 513.277 549.199 513.277C545.579 513.277 541.91 512.968 538.187 512.347V432.148H538.189ZM479.465 432.148C481.016 431.839 482.489 431.605 483.885 431.45C485.283 431.293 486.806 431.216 488.462 431.216C490.014 431.216 491.539 431.322 493.037 431.527C494.537 431.733 496.011 431.993 497.457 432.304C497.768 432.821 498.054 433.569 498.311 434.551C498.57 435.534 498.803 436.569 499.01 437.655C499.217 438.742 499.396 439.825 499.552 440.912C499.708 441.999 499.835 442.901 499.941 443.628C502.215 440.421 505.009 437.55 508.316 435.018C511.626 432.484 515.763 431.215 520.726 431.215C521.761 431.215 522.951 431.267 524.294 431.371C525.638 431.474 526.621 431.629 527.242 431.838C527.448 432.87 527.603 434.06 527.706 435.404C527.813 436.748 527.863 438.144 527.863 439.593C527.863 441.352 527.784 443.264 527.63 445.333C527.474 447.4 527.189 449.365 526.775 451.227C525.638 451.02 524.372 450.917 522.977 450.917C521.58 450.917 520.726 450.917 520.417 450.917C518.658 450.917 516.694 451.098 514.521 451.459C512.351 451.821 510.282 452.778 508.316 454.33C506.351 455.881 504.723 458.207 503.43 461.311C502.138 464.411 501.489 468.755 501.489 474.341V512.5C499.629 512.809 497.768 513.016 495.906 513.119C494.046 513.222 492.237 513.273 490.478 513.273C488.718 513.273 486.936 513.222 485.125 513.119C483.316 513.016 481.429 512.809 479.465 512.5V432.148V432.148ZM418.776 478.995C419.191 485.199 421.362 489.698 425.292 492.491C429.222 495.283 434.392 496.679 440.805 496.679C444.32 496.679 447.912 496.342 451.585 495.668C455.256 494.998 458.746 494.041 462.056 492.8C463.193 494.868 464.176 497.35 465.004 500.245C465.831 503.139 466.295 506.244 466.4 509.552C458.333 512.654 449.232 514.206 439.097 514.206C431.652 514.206 425.267 513.172 419.94 511.103C414.616 509.035 410.272 506.165 406.912 502.494C403.55 498.824 401.067 494.454 399.466 489.386C397.863 484.319 397.063 478.787 397.063 472.79C397.063 466.894 397.889 461.362 399.543 456.191C401.196 451.019 403.653 446.521 406.912 442.696C410.169 438.868 414.201 435.844 419.011 433.62C423.819 431.396 429.429 430.285 435.84 430.285C441.424 430.285 446.389 431.267 450.731 433.232C455.075 435.197 458.772 437.887 461.823 441.3C464.874 444.71 467.176 448.771 468.727 453.476C470.279 458.181 471.054 463.224 471.054 468.599C471.054 470.565 470.977 472.506 470.821 474.417C470.667 476.329 470.483 477.856 470.279 478.994H418.776V478.995ZM450.266 463.639C450.06 458.673 448.689 454.667 446.156 451.616C443.623 448.566 440.08 447.039 435.531 447.039C430.36 447.039 426.43 448.487 423.741 451.382C421.053 454.278 419.451 458.364 418.934 463.639H450.266ZM348.371 448.901H338.29L337.513 445.798L366.521 408.724H370.089V432.148H388.859C389.167 433.7 389.376 435.095 389.479 436.335C389.581 437.578 389.633 438.869 389.633 440.214C389.633 441.661 389.581 443.057 389.479 444.402C389.376 445.747 389.167 447.247 388.859 448.901H370.089V480.391C370.089 483.596 370.349 486.181 370.865 488.147C371.383 490.109 372.131 491.662 373.113 492.8C374.098 493.938 375.31 494.712 376.759 495.126C378.206 495.541 379.915 495.748 381.878 495.748C383.43 495.748 384.954 495.618 386.455 495.36C387.955 495.101 389.273 494.869 390.41 494.662C391.135 496.625 391.65 498.668 391.961 500.788C392.273 502.909 392.427 504.797 392.427 506.451C392.427 507.588 392.401 508.545 392.349 509.321C392.298 510.095 392.22 510.847 392.117 511.57C387.359 512.708 382.449 513.275 377.38 513.275C367.97 513.275 360.782 511.078 355.819 506.684C350.855 502.288 348.373 495.126 348.373 485.199V448.901H348.371ZM290.174 448.901H280.09L279.313 445.798L308.322 408.724H311.89V432.148H330.659C330.968 433.7 331.176 435.095 331.28 436.335C331.382 437.578 331.433 438.869 331.433 440.214C331.433 441.661 331.382 443.057 331.28 444.402C331.176 445.747 330.968 447.247 330.659 448.901H311.89V480.391C311.89 483.596 312.149 486.181 312.667 488.147C313.181 490.109 313.932 491.662 314.914 492.8C315.899 493.938 317.113 494.712 318.56 495.126C320.007 495.541 321.716 495.748 323.679 495.748C325.231 495.748 326.755 495.618 328.256 495.36C329.755 495.101 331.073 494.869 332.21 494.662C332.936 496.625 333.45 498.668 333.762 500.788C334.073 502.909 334.227 504.797 334.227 506.451C334.227 507.588 334.202 508.545 334.149 509.321C334.099 510.095 334.021 510.847 333.917 511.57C329.16 512.708 324.25 513.275 319.182 513.275C309.77 513.275 302.583 511.078 297.62 506.684C292.656 502.288 290.174 495.126 290.174 485.199V448.901H290.174ZM254.082 475.583C252.84 475.375 251.497 475.193 250.047 475.04C248.6 474.885 247.31 474.807 246.171 474.807C241.103 474.807 237.095 475.711 234.148 477.522C231.2 479.331 229.727 482.253 229.727 486.286C229.727 488.976 230.297 491.041 231.434 492.491C232.571 493.938 233.943 494.998 235.544 495.668C237.147 496.342 238.852 496.755 240.662 496.911C242.473 497.065 244.05 497.145 245.393 497.145C246.946 497.145 248.497 497.015 250.047 496.756C251.6 496.498 252.943 496.266 254.082 496.058V475.583ZM254.082 459.604C254.082 457.124 253.668 455.106 252.84 453.554C252.014 452.005 250.876 450.788 249.428 449.911C247.981 449.031 246.196 448.435 244.077 448.127C241.957 447.816 239.603 447.661 237.018 447.661C231.434 447.661 225.488 448.747 219.18 450.917C217.731 448.229 216.646 445.695 215.922 443.316C215.198 440.939 214.836 438.095 214.836 434.785C219.386 433.234 223.936 432.097 228.487 431.373C233.036 430.649 237.278 430.286 241.206 430.286C251.962 430.286 260.364 432.871 266.414 438.044C272.463 443.215 275.489 451.486 275.489 462.862V509.397C271.869 510.534 267.473 511.621 262.303 512.655C257.133 513.69 251.29 514.207 244.774 514.207C239.5 514.207 234.665 513.741 230.27 512.81C225.875 511.88 222.099 510.328 218.949 508.156C215.793 505.986 213.364 503.194 211.656 499.781C209.951 496.367 209.097 492.179 209.097 487.215C209.097 482.252 210.157 478.09 212.277 474.729C214.397 471.368 217.138 468.678 220.498 466.663C223.86 464.645 227.607 463.198 231.746 462.319C235.882 461.44 240.017 461 244.154 461C247.154 461 250.463 461.156 254.083 461.465V459.604H254.082Z" fill="white"/>
<path fill-rule="evenodd" clip-rule="evenodd" d="M553.003 109.659L554.418 138.195C577.552 163.752 586.683 199.946 575.167 233.963C557.977 284.743 501.294 311.436 448.561 293.585C395.828 275.734 367.016 220.097 384.205 169.318C395.759 135.187 425.155 111.939 459.201 105.782L477.595 84.0488C420.206 82.4951 366.064 118.117 346.692 175.341C322.89 245.651 360.593 321.944 430.903 345.745C501.213 369.547 577.506 331.844 601.308 261.534C620.649 204.402 599.379 143.32 553.003 109.659Z" fill="white"/>
<path fill-rule="evenodd" clip-rule="evenodd" d="M520.045 193.859L519.071 153.967L518.289 131.013L517.761 111.127C517.761 111.127 517.871 101.537 517.536 99.2838C517.466 98.8096 517.316 98.4235 517.139 98.0865C517.117 98.0389 517.096 97.9921 517.072 97.9453C517.047 97.9024 517.022 97.8627 516.995 97.8221C516.628 97.1895 516.049 96.6747 515.301 96.422C514.536 96.163 513.744 96.2262 513.057 96.5234C513.043 96.5289 513.029 96.5335 513.015 96.5398C512.933 96.5764 512.855 96.6178 512.777 96.6615C512.451 96.8198 512.12 97.0257 511.796 97.3401C510.161 98.9266 504.424 106.611 504.424 106.611L491.925 122.087L477.36 139.847L452.355 170.944C452.355 170.944 440.881 185.265 443.416 202.893C445.951 220.521 459.057 229.109 469.223 232.55C479.391 235.992 495.017 237.131 507.74 224.668C520.461 212.205 520.045 193.859 520.045 193.859Z" fill="white"/>
</svg>
