<svg width="1168" height="333" viewBox="0 0 1168 333" fill="none" xmlns="http://www.w3.org/2000/svg">
<rect width="1168" height="332.28" fill="#0058CC"/>
<path fill-rule="evenodd" clip-rule="evenodd" d="M302.067 116.413C306.588 115.784 310.937 115.468 315.117 115.468C319.524 115.468 323.875 115.784 328.169 116.413L356.134 174.456L384.946 116.413C388.45 115.784 392.345 115.468 396.64 115.468C400.934 115.468 405.057 115.784 409.012 116.413L414.774 222.996C410.482 223.627 406.413 223.94 402.572 223.94C398.728 223.94 394.945 223.626 391.217 222.996L388.166 145.935L363.421 199.197C361.838 199.407 360.201 199.592 358.505 199.748C356.81 199.906 355.117 199.983 353.422 199.983C351.952 199.983 350.485 199.931 349.016 199.827C347.548 199.722 346.022 199.511 344.439 199.197L321.39 144.832L319.018 222.997C315.403 223.628 311.9 223.941 308.509 223.941C304.893 223.941 301.163 223.627 297.324 222.997L302.067 116.413ZM1039.57 158.075H1029.4L1028.62 154.946L1057.87 117.555H1061.47V141.179H1080.4C1080.71 142.744 1080.92 144.152 1081.03 145.403C1081.13 146.656 1081.18 147.958 1081.18 149.315C1081.18 150.775 1081.13 152.182 1081.03 153.539C1080.92 154.896 1080.71 156.408 1080.4 158.076H1061.47V189.836C1061.47 193.068 1061.73 195.675 1062.25 197.658C1062.78 199.638 1063.53 201.203 1064.52 202.352C1065.51 203.499 1066.74 204.281 1068.2 204.698C1069.66 205.116 1071.38 205.325 1073.36 205.325C1074.93 205.325 1076.46 205.193 1077.98 204.933C1079.49 204.672 1080.82 204.438 1081.97 204.229C1082.7 206.209 1083.22 208.27 1083.53 210.408C1083.85 212.547 1084 214.451 1084 216.119C1084 217.266 1083.97 218.23 1083.92 219.013C1083.87 219.794 1083.79 220.552 1083.69 221.281C1078.89 222.429 1073.94 223.001 1068.83 223.001C1059.34 223.001 1052.09 220.785 1047.08 216.355C1042.07 211.921 1039.57 204.698 1039.57 194.685V158.075H1039.57ZM985.457 186.862C979.615 185.192 975.052 182.715 971.768 179.43C968.482 176.146 966.839 171.216 966.839 164.644C966.839 156.717 969.681 150.514 975.366 146.029C981.05 141.543 988.795 139.301 998.598 139.301C1002.67 139.301 1006.68 139.666 1010.64 140.397C1014.61 141.127 1018.62 142.221 1022.69 143.682C1022.48 146.393 1021.96 149.209 1021.12 152.13C1020.29 155.049 1019.3 157.605 1018.15 159.797C1015.65 158.753 1012.89 157.84 1009.86 157.057C1006.84 156.276 1003.66 155.885 1000.32 155.885C996.771 155.885 994.008 156.432 992.025 157.528C990.044 158.624 989.054 160.371 989.054 162.768C989.054 165.063 989.758 166.68 991.166 167.619C992.574 168.557 994.583 169.446 997.189 170.278L1006.11 172.939C1009.03 173.772 1011.66 174.788 1014.01 175.989C1016.35 177.189 1018.36 178.675 1020.03 180.447C1021.7 182.219 1023 184.411 1023.94 187.018C1024.88 189.626 1025.35 192.806 1025.35 196.56C1025.35 200.421 1024.54 204.019 1022.93 207.356C1021.31 210.695 1018.96 213.589 1015.89 216.039C1012.81 218.492 1009.08 220.421 1004.7 221.828C1000.32 223.236 995.364 223.94 989.836 223.94C987.332 223.94 985.039 223.862 982.954 223.706C980.868 223.548 978.86 223.288 976.93 222.924C975.001 222.558 973.097 222.116 971.219 221.594C969.342 221.073 967.307 220.395 965.117 219.559C965.327 216.742 965.822 213.9 966.603 211.033C967.385 208.166 968.403 205.374 969.654 202.662C973.096 204.019 976.356 205.035 979.433 205.713C982.51 206.392 985.717 206.732 989.053 206.732C990.514 206.732 992.104 206.6 993.824 206.339C995.545 206.078 997.136 205.609 998.596 204.931C1000.06 204.253 1001.28 203.366 1002.27 202.272C1003.26 201.177 1003.76 199.743 1003.76 197.968C1003.76 195.467 1003 193.668 1001.49 192.572C999.977 191.478 997.865 190.511 995.155 189.678L985.457 186.862ZM917.98 223.94C911.409 223.94 905.698 222.87 900.849 220.732C895.999 218.595 891.983 215.622 888.801 211.814C885.62 208.008 883.222 203.549 881.606 198.438C879.989 193.327 879.18 187.801 879.18 181.855C879.18 175.91 879.988 170.329 881.606 165.115C883.222 159.901 885.62 155.389 888.801 151.583C891.983 147.775 895.999 144.779 900.849 142.586C905.698 140.396 911.409 139.301 917.98 139.301C924.55 139.301 930.286 140.397 935.188 142.586C940.089 144.779 944.157 147.774 947.392 151.583C950.625 155.389 953.023 159.901 954.589 165.115C956.153 170.329 956.935 175.91 956.935 181.855C956.935 187.8 956.153 193.327 954.589 198.438C953.024 203.549 950.625 208.007 947.392 211.814C944.156 215.622 940.089 218.595 935.188 220.732C930.285 222.87 924.55 223.94 917.98 223.94ZM917.98 207.043C923.821 207.043 928.019 204.88 930.573 200.55C933.129 196.222 934.407 189.99 934.407 181.855C934.407 173.719 933.129 167.488 930.573 163.16C928.019 158.83 923.821 156.667 917.98 156.667C912.243 156.667 908.098 158.831 905.543 163.16C902.986 167.488 901.707 173.72 901.707 181.855C901.707 189.99 902.986 196.222 905.543 200.55C908.098 204.88 912.243 207.043 917.98 207.043ZM755.4 141.178C756.859 140.867 758.319 140.631 759.779 140.475C761.24 140.317 762.856 140.239 764.63 140.239C766.403 140.239 767.967 140.317 769.323 140.475C770.679 140.631 772.087 140.867 773.547 141.178C773.86 141.699 774.148 142.457 774.408 143.448C774.668 144.438 774.904 145.482 775.112 146.576C775.321 147.672 775.502 148.74 775.658 149.783C775.817 150.826 775.946 151.713 776.05 152.442C776.883 150.88 777.98 149.314 779.337 147.749C780.691 146.186 782.308 144.779 784.185 143.526C786.062 142.274 788.174 141.256 790.521 140.475C792.867 139.692 795.502 139.301 798.422 139.301C811.042 139.301 819.124 144.1 822.671 153.695C824.756 149.835 827.703 146.473 831.509 143.603C835.316 140.735 840.14 139.301 845.983 139.301C855.161 139.301 861.913 141.832 866.241 146.891C870.571 151.948 872.735 159.849 872.735 170.593V222.064C868.981 222.69 865.276 223.001 861.628 223.001C857.976 223.001 854.274 222.69 850.52 222.064V176.38C850.52 170.748 849.815 166.421 848.406 163.397C846.999 160.372 844.158 158.859 839.881 158.859C838.107 158.859 836.361 159.12 834.641 159.64C832.918 160.161 831.354 161.125 829.947 162.534C828.539 163.942 827.392 165.925 826.504 168.481C825.617 171.034 825.173 174.347 825.173 178.414V222.064C821.419 222.69 817.715 223.001 814.066 223.001C810.416 223.001 806.712 222.69 802.957 222.064V176.38C802.957 170.748 802.254 166.421 800.845 163.397C799.437 160.372 796.596 158.859 792.319 158.859C790.548 158.859 788.774 159.12 787 159.64C785.228 160.161 783.637 161.178 782.228 162.691C780.82 164.202 779.698 166.314 778.866 169.028C778.03 171.739 777.613 175.286 777.613 179.665V222.064C773.858 222.69 770.157 223.001 766.506 223.001C762.855 223.001 759.154 222.69 755.399 222.064V141.178H755.4ZM696.173 141.178C697.737 140.867 699.223 140.631 700.631 140.475C702.041 140.317 703.577 140.239 705.247 140.239C706.812 140.239 708.351 140.345 709.862 140.552C711.375 140.761 712.862 141.022 714.32 141.336C714.634 141.858 714.922 142.613 715.181 143.604C715.442 144.595 715.677 145.638 715.886 146.734C716.095 147.83 716.276 148.922 716.433 150.019C716.59 151.115 716.718 152.024 716.825 152.758C719.119 149.524 721.937 146.629 725.272 144.075C728.61 141.519 732.783 140.24 737.788 140.24C738.832 140.24 740.032 140.292 741.386 140.398C742.742 140.502 743.732 140.658 744.359 140.868C744.568 141.909 744.724 143.109 744.828 144.465C744.935 145.821 744.986 147.229 744.986 148.69C744.986 150.463 744.906 152.392 744.751 154.478C744.593 156.564 744.306 158.545 743.889 160.423C742.742 160.213 741.465 160.11 740.058 160.11C738.65 160.11 737.788 160.11 737.477 160.11C735.703 160.11 733.722 160.293 731.53 160.657C729.341 161.023 727.255 161.987 725.273 163.553C723.29 165.117 721.649 167.464 720.345 170.593C719.042 173.72 718.388 178.101 718.388 183.735V222.221C716.512 222.532 714.635 222.741 712.757 222.845C710.881 222.95 709.056 223.001 707.282 223.001C705.508 223.001 703.709 222.95 701.884 222.845C700.059 222.741 698.156 222.532 696.175 222.221V141.178H696.173ZM634.965 188.426C635.383 194.684 637.573 199.221 641.537 202.037C645.5 204.854 650.715 206.261 657.183 206.261C660.729 206.261 664.351 205.92 668.055 205.242C671.758 204.565 675.278 203.6 678.616 202.35C679.763 204.436 680.754 206.938 681.589 209.859C682.423 212.778 682.891 215.909 682.997 219.245C674.861 222.374 665.682 223.939 655.46 223.939C647.952 223.939 641.512 222.896 636.139 220.809C630.769 218.724 626.388 215.828 622.999 212.127C619.609 208.425 617.105 204.018 615.489 198.906C613.872 193.796 613.066 188.217 613.066 182.169C613.066 176.223 613.899 170.643 615.568 165.428C617.235 160.211 619.713 155.676 623 151.818C626.285 147.957 630.352 144.907 635.203 142.665C640.052 140.423 645.711 139.301 652.177 139.301C657.809 139.301 662.816 140.291 667.195 142.274C671.576 144.255 675.304 146.968 678.381 150.411C681.458 153.85 683.78 157.946 685.345 162.691C686.909 167.436 687.691 172.523 687.691 177.944C687.691 179.926 687.613 181.883 687.456 183.812C687.3 185.74 687.115 187.28 686.909 188.427H634.965V188.426ZM666.724 172.939C666.516 167.93 665.133 163.89 662.578 160.813C660.023 157.736 656.451 156.196 651.862 156.196C646.647 156.196 642.684 157.657 639.972 160.577C637.261 163.498 635.645 167.618 635.124 172.939H666.724ZM563.957 158.075H553.789L553.005 154.946L582.262 117.555H585.86V141.179H604.791C605.102 142.744 605.312 144.152 605.417 145.403C605.52 146.656 605.572 147.958 605.572 149.315C605.572 150.775 605.519 152.182 605.417 153.539C605.312 154.896 605.102 156.408 604.791 158.076H585.86V189.836C585.86 193.068 586.123 195.675 586.643 197.658C587.165 199.638 587.921 201.203 588.911 202.352C589.903 203.499 591.127 204.281 592.588 204.698C594.048 205.116 595.771 205.325 597.751 205.325C599.316 205.325 600.853 205.193 602.367 204.933C603.879 204.672 605.209 204.438 606.356 204.229C607.087 206.209 607.607 208.27 607.92 210.408C608.235 212.547 608.39 214.451 608.39 216.119C608.39 217.266 608.364 218.23 608.312 219.013C608.261 219.794 608.182 220.552 608.078 221.281C603.28 222.429 598.328 223.001 593.215 223.001C583.725 223.001 576.475 220.785 571.469 216.355C566.463 211.921 563.959 204.698 563.959 194.685V158.075H563.957ZM505.261 158.075H495.091L494.307 154.946L523.564 117.555H527.162V141.179H546.092C546.403 142.744 546.613 144.152 546.719 145.403C546.822 146.656 546.874 147.958 546.874 149.315C546.874 150.775 546.822 152.182 546.719 153.539C546.613 154.896 546.403 156.408 546.092 158.076H527.162V189.836C527.162 193.068 527.424 195.675 527.946 197.658C528.465 199.638 529.223 201.203 530.213 202.352C531.205 203.499 532.43 204.281 533.89 204.698C535.35 205.116 537.073 205.325 539.052 205.325C540.617 205.325 542.154 205.193 543.668 204.933C545.18 204.672 546.51 204.438 547.657 204.229C548.389 206.209 548.908 208.27 549.222 210.408C549.535 212.547 549.691 214.451 549.691 216.119C549.691 217.266 549.665 218.23 549.613 219.013C549.562 219.794 549.484 220.552 549.379 221.281C544.581 222.429 539.629 223.001 534.517 223.001C525.025 223.001 517.775 220.785 512.77 216.355C507.763 211.921 505.261 204.698 505.261 194.685V158.075V158.075ZM468.861 184.985C467.608 184.776 466.254 184.592 464.791 184.437C463.331 184.281 462.03 184.203 460.881 184.203C455.77 184.203 451.728 185.114 448.755 186.941C445.782 188.766 444.297 191.713 444.297 195.78C444.297 198.493 444.871 200.577 446.018 202.038C447.165 203.498 448.548 204.566 450.163 205.243C451.78 205.922 453.5 206.339 455.325 206.496C457.152 206.651 458.742 206.732 460.096 206.732C461.662 206.732 463.227 206.6 464.79 206.339C466.356 206.078 467.711 205.845 468.86 205.635V184.985H468.861ZM468.861 168.87C468.861 166.369 468.444 164.334 467.608 162.768C466.775 161.206 465.627 159.978 464.167 159.094C462.707 158.206 460.907 157.605 458.77 157.294C456.632 156.981 454.258 156.825 451.651 156.825C446.019 156.825 440.022 157.92 433.66 160.11C432.199 157.398 431.105 154.842 430.375 152.444C429.645 150.046 429.279 147.178 429.279 143.839C433.869 142.275 438.457 141.128 443.046 140.398C447.634 139.668 451.913 139.302 455.874 139.302C466.722 139.302 475.196 141.909 481.298 147.125C487.399 152.34 490.45 160.682 490.45 172.156V219.09C486.799 220.237 482.366 221.332 477.151 222.375C471.937 223.419 466.044 223.94 459.473 223.94C454.154 223.94 449.277 223.471 444.844 222.532C440.412 221.594 436.604 220.028 433.426 217.838C430.243 215.65 427.793 212.833 426.071 209.391C424.351 205.948 423.491 201.725 423.491 196.718C423.491 191.713 424.56 187.515 426.698 184.125C428.835 180.736 431.601 178.023 434.988 175.99C438.379 173.955 442.159 172.496 446.333 171.609C450.505 170.722 454.675 170.279 458.847 170.279C461.873 170.279 465.209 170.436 468.861 170.748V168.87Z" fill="white"/>
<path fill-rule="evenodd" clip-rule="evenodd" d="M214.409 99.6768L215.274 117.112C229.409 132.727 234.987 154.841 227.952 175.625C217.449 206.65 182.817 222.96 150.598 212.053C118.379 201.146 100.775 167.153 111.278 136.128C118.337 115.275 136.297 101.07 157.099 97.3088L168.337 84.0298C133.274 83.0808 100.194 104.845 88.3582 139.808C73.8162 182.766 96.8512 229.38 139.809 243.922C182.767 258.464 229.381 235.429 243.923 192.471C255.74 157.563 242.744 120.243 214.409 99.6768Z" fill="white"/>
<path fill-rule="evenodd" clip-rule="evenodd" d="M194.273 151.122L193.678 126.749L193.201 112.724L192.878 100.574C192.878 100.574 192.945 94.7148 192.741 93.3378C192.698 93.0478 192.607 92.8118 192.499 92.6068C192.486 92.5778 192.473 92.5488 192.458 92.5208C192.443 92.4948 192.427 92.4698 192.411 92.4458C192.186 92.0588 191.833 91.7448 191.376 91.5898C190.908 91.4318 190.425 91.4708 190.005 91.6518C189.996 91.6548 189.988 91.6578 189.979 91.6618C189.929 91.6838 189.881 91.7098 189.833 91.7358C189.634 91.8328 189.431 91.9578 189.233 92.1508C188.234 93.1198 184.729 97.8158 184.729 97.8158L177.092 107.271L168.194 118.122L152.916 137.122C152.916 137.122 145.905 145.872 147.454 156.642C149.003 167.412 157.01 172.659 163.222 174.762C169.434 176.865 178.982 177.561 186.755 169.946C194.527 162.331 194.273 151.122 194.273 151.122Z" fill="white"/>
</svg>
